# xmcd
#
# Track frame offsets: 
#        151
#        19048
#        35805
#        53450
#        66821
#        81930
#        97193
#        113204
#        129439
#        145448
#
# Disc length: 2172 seconds
#
# Revision: 0
# Processed by: cddbd v1.5.2PL0 Copyright (c) Steve Scherf et al.
# Submitted via: ExactAudioCopy v0.95b4
#
DISCID=8a087a0a
DTITLE=เฉลิมพล  มาลาคำ - ปิดตำนานบักจอบหลอย
DYEAR=2006
DGENRE=Country
TTITLE0=ปิดตำนานบักจอบหลอย
TTITLE1=คุณนายเอ่น
TTITLE2=ภาพแห่งความหลัง
TTITLE3=อีเฒ่าสายเดี่ยว
TTITLE4=ตากแอร์
TTITLE5=น้ำตางัว
TTITLE6=แฮงฮักแฮงชัง
TTITLE7=สงสารต้นงิ้ว
TTITLE8=ดวงเมียพิฆาต
TTITLE9=น้ำตาบักยาดอง
EXTD=
EXTT0=
EXTT1=
EXTT2=
EXTT3=
EXTT4=
EXTT5=
EXTT6=
EXTT7=
EXTT8=
EXTT9=
PLAYORDER=
